<?xml version="1.0" encoding="iso-8859-1"?>
<!-- Generator: Adobe Illustrator 16.0.0, SVG Export Plug-In . SVG Version: 6.00 Build 0)  -->
<!DOCTYPE svg PUBLIC "-//W3C//DTD SVG 1.1//EN" "http://www.w3.org/Graphics/SVG/1.1/DTD/svg11.dtd">
<svg xmlns="http://www.w3.org/2000/svg" xmlns:xlink="http://www.w3.org/1999/xlink" version="1.1" id="Capa_1" x="0px" y="0px" width="512px" height="512px" viewBox="0 0 578.185 578.185" style="enable-background:new 0 0 578.185 578.185;" xml:space="preserve">
<g>
	<g>
		<path d="M92.886,204.085c-2.134-9.6-16.838-5.528-14.708,4.056c7.165,32.215,30.836,54.337,59.25,67.687    c2.485,14.777,7.144,29.054,16.516,41.102c16.312,20.968,38.711,36.508,60.388,51.461c20.311,14.011,40.825,27.736,61.339,41.453    c1.302,5.455,2.469,10.938,3.456,16.438c4.586,25.553,3.08,113.375,2.142,139.173c-0.024,0.727,0.057,1.375,0.192,1.995    c-1.763,4.5,0.481,10.734,6.777,10.734h26.438c0.718,0,1.371-0.102,1.983-0.253c3.831,0.021,7.678-2.432,7.678-7.372v-174.8    c11.339-14.814,24.003-28.352,38.006-40.812c16.234-14.447,35.806-25.643,48.992-43.276c7.21-9.641,12.57-20.31,16.088-31.481    c0.31-0.094,0.656-0.184,0.959-0.281c12.472-3.966,38.666-10.233,41.754-25.847c4.174-21.09-1.975-45.982-5.691-66.884    c-1.718-9.673-16.418-5.561-14.708,4.056c2.228,12.542,3.974,25.108,5.227,37.785c0.506,5.108,0.853,10.232,1.085,15.357    c0.514,11.301-14.541,14.5-22.02,17.401c-0.886,0.343-1.783,0.657-2.673,0.983c2.379-17.507,0.339-35.602-6.397-52.55    c-3.586-9.025-18.344-5.096-14.708,4.056c7.209,18.135,8.393,36.569,4.394,53.799c-7.617,2.081-15.32,3.831-23.052,5.496    c2.077-2.485,4.166-4.949,6.267-7.356c6.438-7.373-4.304-18.205-10.783-10.784c-6.508,7.45-12.835,15.247-18.988,23.276    c-15.104,3.57-31.081,10.302-43.762,20.192v-42.722c0-2.281-0.841-4.01-2.105-5.234c2.077-1.465,4.198-2.864,6.238-4.26    c12.224-8.352,23.93-17.274,34.419-27.744c18.548-18.507,28.56-43.411,24.818-69.462c-1.396-9.707-16.087-5.562-14.708,4.055    c5.496,38.258-28.854,64.007-56.602,82.971c-12.579,8.596-19.188,18.152-22.036,29.298c-3.261-3.203-7.055-6.23-11.449-9.151    c-25.072-16.663-40.474-44.48-45.207-73.726c-1.566-9.69-16.263-5.565-14.708,4.055c3.664,22.628,13.162,42.542,27.393,60.409    c6.993,8.78,15.721,15.961,24.823,22.432c5.822,4.141,10.041,8.124,13.044,12.509l-0.069,12.465    c-1.685-1.204-3.378-2.403-5.096-3.554c-7.703-5.153-16.728-7.838-25.675-9.78c-11.514-2.501-23.464-3.223-35.41-3.823    c-14.655-15.5-30.282-30.208-44.782-45.227c-6.842-7.087-17.617,3.708-10.783,10.783c10.673,11.057,21.877,21.893,32.815,32.991    c-1.183-0.11-2.375-0.2-3.554-0.33c-14.672-1.632-29.964-4.982-44.19-10.51c-0.865-6.773-1.363-13.713-1.75-20.747    c-1.481-26.998-0.021-54.097,3.325-80.898c1.216-9.743-14.052-9.625-15.251,0c-3.599,28.825-4.603,57.675-3.007,86.684    c0.134,2.456,0.298,4.925,0.485,7.401C114.746,246.305,98.43,229.019,92.886,204.085z M377.082,291.842    c10.919-2.746,21.931-4.9,31.869-7.046c-5.435,11.942-13.505,22.975-24.027,32.452c-14.557,13.113-30.787,24.02-44.97,37.639    c-2.558,2.456-5.002,5.026-7.441,7.597C345.079,338.195,360.375,313.98,377.082,291.842z M324.335,318.436    c6.847-8.38,17.047-14.435,28.707-19.074c-10.354,15.007-20,30.629-28.707,46.476V318.436z M307.828,270.316    c0.237-1.717,0.678-3.296,1.257-4.782v28.675c-0.261-1.607-0.592-3.166-0.967-4.688    C307.314,283.144,306.939,276.803,307.828,270.316z M275.4,304.4c4.463,2.615,8.56,5.512,12.697,8.299l-0.461,82.681    c-4.513-16.267-10.302-32.199-16.757-47.789c-8.156-19.693-20.167-37.074-33.876-53.276    C250.578,295.261,263.417,297.375,275.4,304.4z M160.981,284.71c17.527,5.083,35.94,7.013,54.243,8.258    c17.455,19.131,33.061,39.641,43.057,63.774c4.223,10.199,8.025,20.641,11.342,31.236c-33.077-21.266-66.818-42.897-94.615-69.939    c-10.669-10.38-16.63-22.343-20.126-35.248C156.909,283.466,158.937,284.115,160.981,284.71z" fill="#64b828"/>
		<path d="M518.609,172.979c3.436-7.258,5.781-16.108,7.136-26.854c3.962-31.359-2.766-56.451-20.559-76.712    c-14.998-17.079-40.678-27.683-67.022-27.683c-17.984,0-34.284,5.014-46.605,14.231C376.225,15.108,332.998,0.2,299.452,0h-0.448    c-22.044,0-45.207,9.514-60.441,24.835c-10.514,10.567-16.789,23.211-18.401,36.924c-15.757-9.739-36.447-15.223-57.964-15.223    c-7.499,0-14.696,0.682-21.388,2.024c-14.255,2.86-26.377,11.383-35.047,24.647c-10.127,15.5-14.256,35.582-11.383,54.619    c-33.109,0.498-75.329,16.557-87.72,60.531c-5.582,19.841-9.359,47.512,4.378,66.667c10.478,14.619,25.529,22.64,45.884,24.418    c-6.74,23.208-5.21,56.961,9.539,75.978c19.935,25.691,50.164,39.845,85.117,39.845c2.228,0,4.456-0.057,6.691-0.167    c7.503-0.375,11.387-7.095,11.236-13.231c-0.171-6.801-4.806-11.742-11.016-11.742l-0.624,0.017    c-3.477,0.175-7.564,0.354-11.539,0.354c-9.033,0-16.059-0.905-22.774-2.921c-8.621-2.599-17.581-9.307-25.479-15.223    l-3.493-2.607c-18.588-13.704-24.072-53.121-10.302-73.982c1.938-2.929,2.566-6.254,1.771-9.368    c-0.722-2.815-2.554-5.308-5.104-6.981c-2.007-2.99-5.186-4.68-8.895-4.68l-0.587,0.012c-2.048,0.094-4.088,0.155-6.12,0.155    c-14.011,0-23.77-3.076-31.648-9.972c-13.354-11.685-8.188-33.872-4.418-50.07c6.817-29.278,38.299-42.387,66.479-42.387    c4.092,0,8.074,0.29,11.828,0.861c5.623,0.869,10.559-2.204,12.962-7.532c2.003-4.439,1.693-9.29-0.747-12.652    c-5.055-15.333-3.484-31.049,4.345-43.224c6.817-10.596,17.609-17.115,30.392-18.368c21.84-2.105,53.889,5.361,68.169,24.945    c2.142,2.938,5.063,4.553,8.229,4.553c3.623,0,7.128-2.122,9.393-5.606c3.929-2.444,6.769-7.373,4.904-13.688    c-4.019-13.619-2.395-25.422,4.835-35.096c9.78-13.089,29.845-21.22,52.363-21.22c32.868,0,69.136,17.952,71.106,57.377    c0.396,7.854,6.373,11.967,12.085,11.967c5.059,0,10.334-3.37,11.179-9.825c10.139-15.826,28.895-18.217,39.278-18.217    c17.87,0,37.675,6.842,49.286,17.022c12.208,10.71,18.348,26.43,18.25,46.724c-0.049,10.542-1.566,35.61-14.545,40.686    c-5.468,2.138-8.552,7.797-7.671,14.08c0.755,5.39,4.166,9.413,8.642,10.327c1.836,0.979,3.893,1.379,6.251,1.097    c16.944-2.068,32.995,4.827,44.08,18.805c11.62,14.664,15.835,35.007,11.281,54.415c-4.162,17.728-30.865,28.172-43.705,33.195    c-13.685,5.354-29.144,8.074-45.944,8.074c-2.607,0-5.215-0.065-7.822-0.188l-0.587-0.012c-6.238,0-10.886,4.957-11.045,11.787    c-0.143,6.128,3.75,12.835,11.249,13.182c2.492,0.114,4.981,0.176,7.45,0.176c24.247,0,47.344-5.438,70.62-16.618    c15.215-7.311,41.18-23.762,44.146-51.779C580.772,222.76,555.374,181.658,518.609,172.979z" fill="#64b828"/>
	</g>
</g>
<g>
</g>
<g>
</g>
<g>
</g>
<g>
</g>
<g>
</g>
<g>
</g>
<g>
</g>
<g>
</g>
<g>
</g>
<g>
</g>
<g>
</g>
<g>
</g>
<g>
</g>
<g>
</g>
<g>
</g>
</svg>
